<svg width="38" height="35" viewBox="0 0 38 35" fill="none" xmlns="http://www.w3.org/2000/svg">
<path d="M37.6608 8.80401C37.4861 8.55355 37.2527 8.34883 36.9807 8.20739C36.7087 8.06596 36.4062 7.99202 36.099 7.99192H10.1324L7.93989 2.77266C7.65241 2.08534 7.1656 1.49816 6.54119 1.08556C5.91679 0.672964 5.1829 0.453531 4.43258 0.455086H0V4.2235H4.43258L13.4459 25.6752C13.5903 26.0184 13.8339 26.3116 14.1459 26.5178C14.458 26.724 14.8246 26.834 15.1996 26.834H30.3992C31.1915 26.834 31.9002 26.346 32.1794 25.613L37.8793 10.5394C37.987 10.2541 38.0234 9.94726 37.9854 9.64503C37.9473 9.34279 37.8359 9.05421 37.6608 8.80401Z" fill="white"/>
<path d="M16 34.9507C17.6569 34.9507 19 33.588 19 31.907C19 30.226 17.6569 28.8633 16 28.8633C14.3431 28.8633 13 30.226 13 31.907C13 33.588 14.3431 34.9507 16 34.9507Z" fill="white"/>
<path d="M29 34.9507C30.6569 34.9507 32 33.588 32 31.907C32 30.226 30.6569 28.8633 29 28.8633C27.3431 28.8633 26 30.226 26 31.907C26 33.588 27.3431 34.9507 29 34.9507Z" fill="white"/>
</svg>
