<svg width="1440" height="96" viewBox="0 0 1440 96" fill="none" xmlns="http://www.w3.org/2000/svg">
<mask id="mask0_451_767" style="mask-type:alpha" maskUnits="userSpaceOnUse" x="0" y="0" width="1478" height="96">
<rect width="1478" height="96" fill="url(#paint0_linear_451_767)"/>
</mask>
<g mask="url(#mask0_451_767)">
<path d="M26 34L28.0081 42.7775L33.9583 35.9178L31.5644 44.6023L40.0935 41.232L33.8459 47.834L43 48.7251L34.33 51.7322L42.012 56.6805L32.9058 55.4038L37.3559 63.2758L29.8996 58.0077L30.0982 67L26 58.9475L21.9018 67L22.1004 58.0077L14.6441 63.2758L19.0942 55.4038L9.98798 56.6805L17.67 51.7322L9 48.7251L18.1541 47.834L11.9065 41.232L20.4356 44.6023L18.0417 35.9178L23.9919 42.7775L26 34Z" fill="#DAB971"/>
<path d="M50 69.3064V32H56.5256V55.4837H64.732L73.8283 32H81.392L71.9497 56.0287C74.9818 56.6893 77.2394 57.8453 78.7225 59.4967C80.2056 61.1152 80.9471 63.3611 80.9471 66.2347V69.3064H74.4215V66.2347C74.4215 62.9978 73.6964 60.6362 72.2463 59.1499C70.7962 57.6306 68.5386 56.8709 65.4736 56.8709H56.5256V69.3064H50Z" fill="#545454"/>
<path d="M100.62 43.7418C97.6205 43.7418 95.3794 44.7492 93.8963 46.764C92.4132 48.7458 91.6717 51.8835 91.6717 56.1773V57.7627L107.936 53.4029C108.332 53.3038 108.645 53.1056 108.875 52.8083C109.106 52.4781 109.222 52.1147 109.222 51.7184V51.4211C108.793 49.043 107.887 47.1769 106.503 45.8227C105.118 44.4355 103.157 43.7418 100.62 43.7418ZM115.5 51.0248C115.533 51.1239 115.549 51.2725 115.549 51.4707C115.549 51.9331 115.418 52.3129 115.154 52.6102C114.923 52.8744 114.627 53.0561 114.264 53.1552L91.82 59.1995C92.1825 62.4363 93.0724 64.8144 94.4895 66.3338C95.9067 67.8531 97.9501 68.6128 100.62 68.6128C102.993 68.6128 104.888 68.0017 106.305 66.7797C107.755 65.5576 108.711 63.6419 109.172 61.0326C109.238 60.6032 109.436 60.2729 109.765 60.0417C110.095 59.7775 110.457 59.6454 110.853 59.6454H113.72C114.182 59.6454 114.577 59.8105 114.907 60.1408C115.236 60.4381 115.401 60.8509 115.401 61.3794C115.401 61.6106 115.385 61.7758 115.352 61.8748C114.396 64.7484 112.699 66.8127 110.26 68.0678C107.854 69.3229 104.64 69.967 100.62 70H100.274C95.2311 70 91.441 68.9266 88.9032 66.7797C86.3985 64.5997 85.1461 61.1152 85.1461 56.3259C85.1461 51.5037 86.415 48.0026 88.9527 45.8227C91.5234 43.6097 95.4124 42.5033 100.62 42.5033C108.892 42.5033 113.852 45.3438 115.5 51.0248Z" fill="#545454"/>
<path d="M135.185 50.3807C132.087 50.3807 129.83 51.3881 128.412 53.4029C126.995 55.4176 126.287 58.5389 126.287 62.7666V69.3064H119.761V32.1486H126.287V50.5789C128.561 49.555 131.527 49.043 135.185 49.043C135.976 49.043 136.734 49.0595 137.459 49.0926C138.184 49.1256 138.876 49.2082 139.536 49.3403L143.095 43.1473H150.659L145.814 51.5697C146.605 51.9661 147.297 52.5441 147.89 53.3038C148.517 54.0634 149.027 54.9387 149.423 55.9296C149.851 56.9205 150.164 58.0104 150.362 59.1995C150.56 60.3555 150.659 61.5445 150.659 62.7666V69.3064H144.133V62.7666C144.133 58.5389 143.408 55.4176 141.958 53.4029C140.541 51.3881 138.283 50.3807 135.185 50.3807Z" fill="#545454"/>
<path d="M154.377 69.3064V32H160.903V69.3064H154.377Z" fill="#545454"/>
<path d="M165.143 69.3064V43.0482H171.669V69.3064H165.143ZM168.406 33.09C170.581 33.09 171.669 34.0643 171.669 36.013C171.669 37.9618 170.581 38.9361 168.406 38.9361C166.231 38.9361 165.143 37.9618 165.143 36.013C165.143 34.0643 166.231 33.09 168.406 33.09Z" fill="#545454"/>
<path d="M191.526 50.3807C188.428 50.3807 186.171 51.3881 184.754 53.4029C183.337 55.4176 182.628 58.5389 182.628 62.7666V69.3064H176.102V32.1486H182.628V50.5789C184.902 49.555 187.868 49.043 191.526 49.043C192.317 49.043 193.075 49.0595 193.801 49.0926C194.526 49.1256 195.218 49.2082 195.877 49.3403L199.436 43.1473H207L202.155 51.5697C202.946 51.9661 203.638 52.5441 204.232 53.3038C204.858 54.0634 205.369 54.9387 205.764 55.9296C206.193 56.9205 206.506 58.0104 206.703 59.1995C206.901 60.3555 207 61.5445 207 62.7666V69.3064H200.474V62.7666C200.474 58.5389 199.749 55.4176 198.299 53.4029C196.882 51.3881 194.624 50.3807 191.526 50.3807Z" fill="#545454"/>
<path d="M843 34L845.008 42.7775L850.958 35.9178L848.564 44.6023L857.093 41.232L850.846 47.834L860 48.7251L851.33 51.7322L859.012 56.6805L849.906 55.4038L854.356 63.2758L846.9 58.0077L847.098 67L843 58.9475L838.902 67L839.1 58.0077L831.644 63.2758L836.094 55.4038L826.988 56.6805L834.67 51.7322L826 48.7251L835.154 47.834L828.907 41.232L837.436 44.6023L835.042 35.9178L840.992 42.7775L843 34Z" fill="#DAB971"/>
<path d="M867 69.3064V32H873.526V55.4837H881.732L890.828 32H898.392L888.95 56.0287C891.982 56.6893 894.239 57.8453 895.722 59.4967C897.206 61.1152 897.947 63.3611 897.947 66.2347V69.3064H891.422V66.2347C891.422 62.9978 890.696 60.6362 889.246 59.1499C887.796 57.6306 885.539 56.8709 882.474 56.8709H873.526V69.3064H867Z" fill="#545454"/>
<path d="M917.62 43.7418C914.621 43.7418 912.379 44.7492 910.896 46.764C909.413 48.7458 908.672 51.8835 908.672 56.1773V57.7627L924.936 53.4029C925.332 53.3038 925.645 53.1056 925.875 52.8083C926.106 52.4781 926.222 52.1147 926.222 51.7184V51.4211C925.793 49.043 924.887 47.1769 923.503 45.8227C922.118 44.4355 920.157 43.7418 917.62 43.7418ZM932.5 51.0248C932.533 51.1239 932.549 51.2725 932.549 51.4707C932.549 51.9331 932.418 52.3129 932.154 52.6102C931.923 52.8744 931.627 53.0561 931.264 53.1552L908.82 59.1995C909.183 62.4363 910.072 64.8144 911.49 66.3338C912.907 67.8531 914.95 68.6128 917.62 68.6128C919.993 68.6128 921.888 68.0017 923.305 66.7797C924.755 65.5576 925.711 63.6419 926.172 61.0326C926.238 60.6032 926.436 60.2729 926.765 60.0417C927.095 59.7775 927.457 59.6454 927.853 59.6454H930.72C931.182 59.6454 931.577 59.8105 931.907 60.1408C932.236 60.4381 932.401 60.8509 932.401 61.3794C932.401 61.6106 932.385 61.7758 932.352 61.8748C931.396 64.7484 929.699 66.8127 927.26 68.0678C924.854 69.3229 921.64 69.967 917.62 70H917.274C912.231 70 908.441 68.9266 905.903 66.7797C903.398 64.5997 902.146 61.1152 902.146 56.3259C902.146 51.5037 903.415 48.0026 905.953 45.8227C908.523 43.6097 912.412 42.5033 917.62 42.5033C925.892 42.5033 930.852 45.3438 932.5 51.0248Z" fill="#545454"/>
<path d="M952.185 50.3807C949.087 50.3807 946.83 51.3881 945.412 53.4029C943.995 55.4176 943.287 58.5389 943.287 62.7666V69.3064H936.761V32.1486H943.287V50.5789C945.561 49.555 948.527 49.043 952.185 49.043C952.976 49.043 953.734 49.0595 954.459 49.0926C955.184 49.1256 955.876 49.2082 956.536 49.3403L960.095 43.1473H967.659L962.814 51.5697C963.605 51.9661 964.297 52.5441 964.89 53.3038C965.517 54.0634 966.027 54.9387 966.423 55.9296C966.851 56.9205 967.164 58.0104 967.362 59.1995C967.56 60.3555 967.659 61.5445 967.659 62.7666V69.3064H961.133V62.7666C961.133 58.5389 960.408 55.4176 958.958 53.4029C957.541 51.3881 955.283 50.3807 952.185 50.3807Z" fill="#545454"/>
<path d="M971.377 69.3064V32H977.903V69.3064H971.377Z" fill="#545454"/>
<path d="M982.143 69.3064V43.0482H988.669V69.3064H982.143ZM985.406 33.09C987.581 33.09 988.669 34.0643 988.669 36.013C988.669 37.9618 987.581 38.9361 985.406 38.9361C983.231 38.9361 982.143 37.9618 982.143 36.013C982.143 34.0643 983.231 33.09 985.406 33.09Z" fill="#545454"/>
<path d="M1008.53 50.3807C1005.43 50.3807 1003.17 51.3881 1001.75 53.4029C1000.34 55.4176 999.628 58.5389 999.628 62.7666V69.3064H993.102V32.1486H999.628V50.5789C1001.9 49.555 1004.87 49.043 1008.53 49.043C1009.32 49.043 1010.08 49.0595 1010.8 49.0926C1011.53 49.1256 1012.22 49.2082 1012.88 49.3403L1016.44 43.1473H1024L1019.16 51.5697C1019.95 51.9661 1020.64 52.5441 1021.23 53.3038C1021.86 54.0634 1022.37 54.9387 1022.76 55.9296C1023.19 56.9205 1023.51 58.0104 1023.7 59.1995C1023.9 60.3555 1024 61.5445 1024 62.7666V69.3064H1017.47V62.7666C1017.47 58.5389 1016.75 55.4176 1015.3 53.4029C1013.88 51.3881 1011.62 50.3807 1008.53 50.3807Z" fill="#545454"/>
<path d="M433 34L435.008 42.7775L440.958 35.9178L438.564 44.6023L447.093 41.232L440.846 47.834L450 48.7251L441.33 51.7322L449.012 56.6805L439.906 55.4038L444.356 63.2758L436.9 58.0077L437.098 67L433 58.9475L428.902 67L429.1 58.0077L421.644 63.2758L426.094 55.4038L416.988 56.6805L424.67 51.7322L416 48.7251L425.154 47.834L418.907 41.232L427.436 44.6023L425.042 35.9178L430.992 42.7775L433 34Z" fill="#DAB971"/>
<path d="M457 69.3064V32H463.526V55.4837H471.732L480.828 32H488.392L478.95 56.0287C481.982 56.6893 484.239 57.8453 485.722 59.4967C487.206 61.1152 487.947 63.3611 487.947 66.2347V69.3064H481.422V66.2347C481.422 62.9978 480.696 60.6362 479.246 59.1499C477.796 57.6306 475.539 56.8709 472.474 56.8709H463.526V69.3064H457Z" fill="#545454"/>
<path d="M507.62 43.7418C504.621 43.7418 502.379 44.7492 500.896 46.764C499.413 48.7458 498.672 51.8835 498.672 56.1773V57.7627L514.936 53.4029C515.332 53.3038 515.645 53.1056 515.875 52.8083C516.106 52.4781 516.222 52.1147 516.222 51.7184V51.4211C515.793 49.043 514.887 47.1769 513.503 45.8227C512.118 44.4355 510.157 43.7418 507.62 43.7418ZM522.5 51.0248C522.533 51.1239 522.549 51.2725 522.549 51.4707C522.549 51.9331 522.418 52.3129 522.154 52.6102C521.923 52.8744 521.627 53.0561 521.264 53.1552L498.82 59.1995C499.183 62.4363 500.072 64.8144 501.49 66.3338C502.907 67.8531 504.95 68.6128 507.62 68.6128C509.993 68.6128 511.888 68.0017 513.305 66.7797C514.755 65.5576 515.711 63.6419 516.172 61.0326C516.238 60.6032 516.436 60.2729 516.765 60.0417C517.095 59.7775 517.457 59.6454 517.853 59.6454H520.72C521.182 59.6454 521.577 59.8105 521.907 60.1408C522.236 60.4381 522.401 60.8509 522.401 61.3794C522.401 61.6106 522.385 61.7758 522.352 61.8748C521.396 64.7484 519.699 66.8127 517.26 68.0678C514.854 69.3229 511.64 69.967 507.62 70H507.274C502.231 70 498.441 68.9266 495.903 66.7797C493.398 64.5997 492.146 61.1152 492.146 56.3259C492.146 51.5037 493.415 48.0026 495.953 45.8227C498.523 43.6097 502.412 42.5033 507.62 42.5033C515.892 42.5033 520.852 45.3438 522.5 51.0248Z" fill="#545454"/>
<path d="M542.185 50.3807C539.087 50.3807 536.83 51.3881 535.412 53.4029C533.995 55.4176 533.287 58.5389 533.287 62.7666V69.3064H526.761V32.1486H533.287V50.5789C535.561 49.555 538.527 49.043 542.185 49.043C542.976 49.043 543.734 49.0595 544.459 49.0926C545.184 49.1256 545.876 49.2082 546.536 49.3403L550.095 43.1473H557.659L552.814 51.5697C553.605 51.9661 554.297 52.5441 554.89 53.3038C555.517 54.0634 556.027 54.9387 556.423 55.9296C556.851 56.9205 557.164 58.0104 557.362 59.1995C557.56 60.3555 557.659 61.5445 557.659 62.7666V69.3064H551.133V62.7666C551.133 58.5389 550.408 55.4176 548.958 53.4029C547.541 51.3881 545.283 50.3807 542.185 50.3807Z" fill="#545454"/>
<path d="M561.377 69.3064V32H567.903V69.3064H561.377Z" fill="#545454"/>
<path d="M572.143 69.3064V43.0482H578.669V69.3064H572.143ZM575.406 33.09C577.581 33.09 578.669 34.0643 578.669 36.013C578.669 37.9618 577.581 38.9361 575.406 38.9361C573.231 38.9361 572.143 37.9618 572.143 36.013C572.143 34.0643 573.231 33.09 575.406 33.09Z" fill="#545454"/>
<path d="M598.526 50.3807C595.428 50.3807 593.171 51.3881 591.754 53.4029C590.337 55.4176 589.628 58.5389 589.628 62.7666V69.3064H583.102V32.1486H589.628V50.5789C591.902 49.555 594.868 49.043 598.526 49.043C599.317 49.043 600.075 49.0595 600.801 49.0926C601.526 49.1256 602.218 49.2082 602.877 49.3403L606.436 43.1473H614L609.155 51.5697C609.946 51.9661 610.638 52.5441 611.232 53.3038C611.858 54.0634 612.369 54.9387 612.764 55.9296C613.193 56.9205 613.506 58.0104 613.703 59.1995C613.901 60.3555 614 61.5445 614 62.7666V69.3064H607.474V62.7666C607.474 58.5389 606.749 55.4176 605.299 53.4029C603.882 51.3881 601.624 50.3807 598.526 50.3807Z" fill="#545454"/>
<path d="M1250 34L1252.01 42.7775L1257.96 35.9178L1255.56 44.6023L1264.09 41.232L1257.85 47.834L1267 48.7251L1258.33 51.7322L1266.01 56.6805L1256.91 55.4038L1261.36 63.2758L1253.9 58.0077L1254.1 67L1250 58.9475L1245.9 67L1246.1 58.0077L1238.64 63.2758L1243.09 55.4038L1233.99 56.6805L1241.67 51.7322L1233 48.7251L1242.15 47.834L1235.91 41.232L1244.44 44.6023L1242.04 35.9178L1247.99 42.7775L1250 34Z" fill="#DAB971"/>
<path d="M1274 69.3064V32H1280.53V55.4837H1288.73L1297.83 32H1305.39L1295.95 56.0287C1298.98 56.6893 1301.24 57.8453 1302.72 59.4967C1304.21 61.1152 1304.95 63.3611 1304.95 66.2347V69.3064H1298.42V66.2347C1298.42 62.9978 1297.7 60.6362 1296.25 59.1499C1294.8 57.6306 1292.54 56.8709 1289.47 56.8709H1280.53V69.3064H1274Z" fill="#545454"/>
<path d="M1324.62 43.7418C1321.62 43.7418 1319.38 44.7492 1317.9 46.764C1316.41 48.7458 1315.67 51.8835 1315.67 56.1773V57.7627L1331.94 53.4029C1332.33 53.3038 1332.64 53.1056 1332.88 52.8083C1333.11 52.4781 1333.22 52.1147 1333.22 51.7184V51.4211C1332.79 49.043 1331.89 47.1769 1330.5 45.8227C1329.12 44.4355 1327.16 43.7418 1324.62 43.7418ZM1339.5 51.0248C1339.53 51.1239 1339.55 51.2725 1339.55 51.4707C1339.55 51.9331 1339.42 52.3129 1339.15 52.6102C1338.92 52.8744 1338.63 53.0561 1338.26 53.1552L1315.82 59.1995C1316.18 62.4363 1317.07 64.8144 1318.49 66.3338C1319.91 67.8531 1321.95 68.6128 1324.62 68.6128C1326.99 68.6128 1328.89 68.0017 1330.3 66.7797C1331.75 65.5576 1332.71 63.6419 1333.17 61.0326C1333.24 60.6032 1333.44 60.2729 1333.77 60.0417C1334.09 59.7775 1334.46 59.6454 1334.85 59.6454H1337.72C1338.18 59.6454 1338.58 59.8105 1338.91 60.1408C1339.24 60.4381 1339.4 60.8509 1339.4 61.3794C1339.4 61.6106 1339.38 61.7758 1339.35 61.8748C1338.4 64.7484 1336.7 66.8127 1334.26 68.0678C1331.85 69.3229 1328.64 69.967 1324.62 70H1324.27C1319.23 70 1315.44 68.9266 1312.9 66.7797C1310.4 64.5997 1309.15 61.1152 1309.15 56.3259C1309.15 51.5037 1310.41 48.0026 1312.95 45.8227C1315.52 43.6097 1319.41 42.5033 1324.62 42.5033C1332.89 42.5033 1337.85 45.3438 1339.5 51.0248Z" fill="#545454"/>
<path d="M1359.19 50.3807C1356.09 50.3807 1353.83 51.3881 1352.41 53.4029C1351 55.4176 1350.29 58.5389 1350.29 62.7666V69.3064H1343.76V32.1486H1350.29V50.5789C1352.56 49.555 1355.53 49.043 1359.19 49.043C1359.98 49.043 1360.73 49.0595 1361.46 49.0926C1362.18 49.1256 1362.88 49.2082 1363.54 49.3403L1367.1 43.1473H1374.66L1369.81 51.5697C1370.61 51.9661 1371.3 52.5441 1371.89 53.3038C1372.52 54.0634 1373.03 54.9387 1373.42 55.9296C1373.85 56.9205 1374.16 58.0104 1374.36 59.1995C1374.56 60.3555 1374.66 61.5445 1374.66 62.7666V69.3064H1368.13V62.7666C1368.13 58.5389 1367.41 55.4176 1365.96 53.4029C1364.54 51.3881 1362.28 50.3807 1359.19 50.3807Z" fill="#545454"/>
<path d="M1378.38 69.3064V32H1384.9V69.3064H1378.38Z" fill="#545454"/>
<path d="M1389.14 69.3064V43.0482H1395.67V69.3064H1389.14ZM1392.41 33.09C1394.58 33.09 1395.67 34.0643 1395.67 36.013C1395.67 37.9618 1394.58 38.9361 1392.41 38.9361C1390.23 38.9361 1389.14 37.9618 1389.14 36.013C1389.14 34.0643 1390.23 33.09 1392.41 33.09Z" fill="#545454"/>
<path d="M1415.53 50.3807C1412.43 50.3807 1410.17 51.3881 1408.75 53.4029C1407.34 55.4176 1406.63 58.5389 1406.63 62.7666V69.3064H1400.1V32.1486H1406.63V50.5789C1408.9 49.555 1411.87 49.043 1415.53 49.043C1416.32 49.043 1417.08 49.0595 1417.8 49.0926C1418.53 49.1256 1419.22 49.2082 1419.88 49.3403L1423.44 43.1473H1431L1426.16 51.5697C1426.95 51.9661 1427.64 52.5441 1428.23 53.3038C1428.86 54.0634 1429.37 54.9387 1429.76 55.9296C1430.19 56.9205 1430.51 58.0104 1430.7 59.1995C1430.9 60.3555 1431 61.5445 1431 62.7666V69.3064H1424.47V62.7666C1424.47 58.5389 1423.75 55.4176 1422.3 53.4029C1420.88 51.3881 1418.62 50.3807 1415.53 50.3807Z" fill="#545454"/>
<path d="M230 34L232.008 42.7775L237.958 35.9178L235.564 44.6023L244.093 41.232L237.846 47.834L247 48.7251L238.33 51.7322L246.012 56.6805L236.906 55.4038L241.356 63.2758L233.9 58.0077L234.098 67L230 58.9475L225.902 67L226.1 58.0077L218.644 63.2758L223.094 55.4038L213.988 56.6805L221.67 51.7322L213 48.7251L222.154 47.834L215.907 41.232L224.436 44.6023L222.042 35.9178L227.992 42.7775L230 34Z" fill="#DAB971"/>
<path d="M254 69.3064V32H260.526V55.4837H268.732L277.828 32H285.392L275.95 56.0287C278.982 56.6893 281.239 57.8453 282.722 59.4967C284.206 61.1152 284.947 63.3611 284.947 66.2347V69.3064H278.422V66.2347C278.422 62.9978 277.696 60.6362 276.246 59.1499C274.796 57.6306 272.539 56.8709 269.474 56.8709H260.526V69.3064H254Z" fill="#545454"/>
<path d="M304.62 43.7418C301.621 43.7418 299.379 44.7492 297.896 46.764C296.413 48.7458 295.672 51.8835 295.672 56.1773V57.7627L311.936 53.4029C312.332 53.3038 312.645 53.1056 312.875 52.8083C313.106 52.4781 313.222 52.1147 313.222 51.7184V51.4211C312.793 49.043 311.887 47.1769 310.503 45.8227C309.118 44.4355 307.157 43.7418 304.62 43.7418ZM319.5 51.0248C319.533 51.1239 319.549 51.2725 319.549 51.4707C319.549 51.9331 319.418 52.3129 319.154 52.6102C318.923 52.8744 318.627 53.0561 318.264 53.1552L295.82 59.1995C296.183 62.4363 297.072 64.8144 298.49 66.3338C299.907 67.8531 301.95 68.6128 304.62 68.6128C306.993 68.6128 308.888 68.0017 310.305 66.7797C311.755 65.5576 312.711 63.6419 313.172 61.0326C313.238 60.6032 313.436 60.2729 313.765 60.0417C314.095 59.7775 314.457 59.6454 314.853 59.6454H317.72C318.182 59.6454 318.577 59.8105 318.907 60.1408C319.236 60.4381 319.401 60.8509 319.401 61.3794C319.401 61.6106 319.385 61.7758 319.352 61.8748C318.396 64.7484 316.699 66.8127 314.26 68.0678C311.854 69.3229 308.64 69.967 304.62 70H304.274C299.231 70 295.441 68.9266 292.903 66.7797C290.398 64.5997 289.146 61.1152 289.146 56.3259C289.146 51.5037 290.415 48.0026 292.953 45.8227C295.523 43.6097 299.412 42.5033 304.62 42.5033C312.892 42.5033 317.852 45.3438 319.5 51.0248Z" fill="#545454"/>
<path d="M339.185 50.3807C336.087 50.3807 333.83 51.3881 332.412 53.4029C330.995 55.4176 330.287 58.5389 330.287 62.7666V69.3064H323.761V32.1486H330.287V50.5789C332.561 49.555 335.527 49.043 339.185 49.043C339.976 49.043 340.734 49.0595 341.459 49.0926C342.184 49.1256 342.876 49.2082 343.536 49.3403L347.095 43.1473H354.659L349.814 51.5697C350.605 51.9661 351.297 52.5441 351.89 53.3038C352.517 54.0634 353.027 54.9387 353.423 55.9296C353.851 56.9205 354.164 58.0104 354.362 59.1995C354.56 60.3555 354.659 61.5445 354.659 62.7666V69.3064H348.133V62.7666C348.133 58.5389 347.408 55.4176 345.958 53.4029C344.541 51.3881 342.283 50.3807 339.185 50.3807Z" fill="#545454"/>
<path d="M358.377 69.3064V32H364.903V69.3064H358.377Z" fill="#545454"/>
<path d="M369.143 69.3064V43.0482H375.669V69.3064H369.143ZM372.406 33.09C374.581 33.09 375.669 34.0643 375.669 36.013C375.669 37.9618 374.581 38.9361 372.406 38.9361C370.231 38.9361 369.143 37.9618 369.143 36.013C369.143 34.0643 370.231 33.09 372.406 33.09Z" fill="#545454"/>
<path d="M395.526 50.3807C392.428 50.3807 390.171 51.3881 388.754 53.4029C387.337 55.4176 386.628 58.5389 386.628 62.7666V69.3064H380.102V32.1486H386.628V50.5789C388.902 49.555 391.868 49.043 395.526 49.043C396.317 49.043 397.075 49.0595 397.801 49.0926C398.526 49.1256 399.218 49.2082 399.877 49.3403L403.436 43.1473H411L406.155 51.5697C406.946 51.9661 407.638 52.5441 408.232 53.3038C408.858 54.0634 409.369 54.9387 409.764 55.9296C410.193 56.9205 410.506 58.0104 410.703 59.1995C410.901 60.3555 411 61.5445 411 62.7666V69.3064H404.474V62.7666C404.474 58.5389 403.749 55.4176 402.299 53.4029C400.882 51.3881 398.624 50.3807 395.526 50.3807Z" fill="#545454"/>
<path d="M1047 34L1049.01 42.7775L1054.96 35.9178L1052.56 44.6023L1061.09 41.232L1054.85 47.834L1064 48.7251L1055.33 51.7322L1063.01 56.6805L1053.91 55.4038L1058.36 63.2758L1050.9 58.0077L1051.1 67L1047 58.9475L1042.9 67L1043.1 58.0077L1035.64 63.2758L1040.09 55.4038L1030.99 56.6805L1038.67 51.7322L1030 48.7251L1039.15 47.834L1032.91 41.232L1041.44 44.6023L1039.04 35.9178L1044.99 42.7775L1047 34Z" fill="#DAB971"/>
<path d="M1071 69.3064V32H1077.53V55.4837H1085.73L1094.83 32H1102.39L1092.95 56.0287C1095.98 56.6893 1098.24 57.8453 1099.72 59.4967C1101.21 61.1152 1101.95 63.3611 1101.95 66.2347V69.3064H1095.42V66.2347C1095.42 62.9978 1094.7 60.6362 1093.25 59.1499C1091.8 57.6306 1089.54 56.8709 1086.47 56.8709H1077.53V69.3064H1071Z" fill="#545454"/>
<path d="M1121.62 43.7418C1118.62 43.7418 1116.38 44.7492 1114.9 46.764C1113.41 48.7458 1112.67 51.8835 1112.67 56.1773V57.7627L1128.94 53.4029C1129.33 53.3038 1129.64 53.1056 1129.88 52.8083C1130.11 52.4781 1130.22 52.1147 1130.22 51.7184V51.4211C1129.79 49.043 1128.89 47.1769 1127.5 45.8227C1126.12 44.4355 1124.16 43.7418 1121.62 43.7418ZM1136.5 51.0248C1136.53 51.1239 1136.55 51.2725 1136.55 51.4707C1136.55 51.9331 1136.42 52.3129 1136.15 52.6102C1135.92 52.8744 1135.63 53.0561 1135.26 53.1552L1112.82 59.1995C1113.18 62.4363 1114.07 64.8144 1115.49 66.3338C1116.91 67.8531 1118.95 68.6128 1121.62 68.6128C1123.99 68.6128 1125.89 68.0017 1127.3 66.7797C1128.75 65.5576 1129.71 63.6419 1130.17 61.0326C1130.24 60.6032 1130.44 60.2729 1130.77 60.0417C1131.09 59.7775 1131.46 59.6454 1131.85 59.6454H1134.72C1135.18 59.6454 1135.58 59.8105 1135.91 60.1408C1136.24 60.4381 1136.4 60.8509 1136.4 61.3794C1136.4 61.6106 1136.38 61.7758 1136.35 61.8748C1135.4 64.7484 1133.7 66.8127 1131.26 68.0678C1128.85 69.3229 1125.64 69.967 1121.62 70H1121.27C1116.23 70 1112.44 68.9266 1109.9 66.7797C1107.4 64.5997 1106.15 61.1152 1106.15 56.3259C1106.15 51.5037 1107.41 48.0026 1109.95 45.8227C1112.52 43.6097 1116.41 42.5033 1121.62 42.5033C1129.89 42.5033 1134.85 45.3438 1136.5 51.0248Z" fill="#545454"/>
<path d="M1156.19 50.3807C1153.09 50.3807 1150.83 51.3881 1149.41 53.4029C1148 55.4176 1147.29 58.5389 1147.29 62.7666V69.3064H1140.76V32.1486H1147.29V50.5789C1149.56 49.555 1152.53 49.043 1156.19 49.043C1156.98 49.043 1157.73 49.0595 1158.46 49.0926C1159.18 49.1256 1159.88 49.2082 1160.54 49.3403L1164.1 43.1473H1171.66L1166.81 51.5697C1167.61 51.9661 1168.3 52.5441 1168.89 53.3038C1169.52 54.0634 1170.03 54.9387 1170.42 55.9296C1170.85 56.9205 1171.16 58.0104 1171.36 59.1995C1171.56 60.3555 1171.66 61.5445 1171.66 62.7666V69.3064H1165.13V62.7666C1165.13 58.5389 1164.41 55.4176 1162.96 53.4029C1161.54 51.3881 1159.28 50.3807 1156.19 50.3807Z" fill="#545454"/>
<path d="M1175.38 69.3064V32H1181.9V69.3064H1175.38Z" fill="#545454"/>
<path d="M1186.14 69.3064V43.0482H1192.67V69.3064H1186.14ZM1189.41 33.09C1191.58 33.09 1192.67 34.0643 1192.67 36.013C1192.67 37.9618 1191.58 38.9361 1189.41 38.9361C1187.23 38.9361 1186.14 37.9618 1186.14 36.013C1186.14 34.0643 1187.23 33.09 1189.41 33.09Z" fill="#545454"/>
<path d="M1212.53 50.3807C1209.43 50.3807 1207.17 51.3881 1205.75 53.4029C1204.34 55.4176 1203.63 58.5389 1203.63 62.7666V69.3064H1197.1V32.1486H1203.63V50.5789C1205.9 49.555 1208.87 49.043 1212.53 49.043C1213.32 49.043 1214.08 49.0595 1214.8 49.0926C1215.53 49.1256 1216.22 49.2082 1216.88 49.3403L1220.44 43.1473H1228L1223.16 51.5697C1223.95 51.9661 1224.64 52.5441 1225.23 53.3038C1225.86 54.0634 1226.37 54.9387 1226.76 55.9296C1227.19 56.9205 1227.51 58.0104 1227.7 59.1995C1227.9 60.3555 1228 61.5445 1228 62.7666V69.3064H1221.47V62.7666C1221.47 58.5389 1220.75 55.4176 1219.3 53.4029C1217.88 51.3881 1215.62 50.3807 1212.53 50.3807Z" fill="#545454"/>
<path d="M637 34L639.008 42.7775L644.958 35.9178L642.564 44.6023L651.093 41.232L644.846 47.834L654 48.7251L645.33 51.7322L653.012 56.6805L643.906 55.4038L648.356 63.2758L640.9 58.0077L641.098 67L637 58.9475L632.902 67L633.1 58.0077L625.644 63.2758L630.094 55.4038L620.988 56.6805L628.67 51.7322L620 48.7251L629.154 47.834L622.907 41.232L631.436 44.6023L629.042 35.9178L634.992 42.7775L637 34Z" fill="#DAB971"/>
<path d="M661 69.3064V32H667.526V55.4837H675.732L684.828 32H692.392L682.95 56.0287C685.982 56.6893 688.239 57.8453 689.722 59.4967C691.206 61.1152 691.947 63.3611 691.947 66.2347V69.3064H685.422V66.2347C685.422 62.9978 684.696 60.6362 683.246 59.1499C681.796 57.6306 679.539 56.8709 676.474 56.8709H667.526V69.3064H661Z" fill="#545454"/>
<path d="M711.62 43.7418C708.621 43.7418 706.379 44.7492 704.896 46.764C703.413 48.7458 702.672 51.8835 702.672 56.1773V57.7627L718.936 53.4029C719.332 53.3038 719.645 53.1056 719.875 52.8083C720.106 52.4781 720.222 52.1147 720.222 51.7184V51.4211C719.793 49.043 718.887 47.1769 717.503 45.8227C716.118 44.4355 714.157 43.7418 711.62 43.7418ZM726.5 51.0248C726.533 51.1239 726.549 51.2725 726.549 51.4707C726.549 51.9331 726.418 52.3129 726.154 52.6102C725.923 52.8744 725.627 53.0561 725.264 53.1552L702.82 59.1995C703.183 62.4363 704.072 64.8144 705.49 66.3338C706.907 67.8531 708.95 68.6128 711.62 68.6128C713.993 68.6128 715.888 68.0017 717.305 66.7797C718.755 65.5576 719.711 63.6419 720.172 61.0326C720.238 60.6032 720.436 60.2729 720.765 60.0417C721.095 59.7775 721.457 59.6454 721.853 59.6454H724.72C725.182 59.6454 725.577 59.8105 725.907 60.1408C726.236 60.4381 726.401 60.8509 726.401 61.3794C726.401 61.6106 726.385 61.7758 726.352 61.8748C725.396 64.7484 723.699 66.8127 721.26 68.0678C718.854 69.3229 715.64 69.967 711.62 70H711.274C706.231 70 702.441 68.9266 699.903 66.7797C697.398 64.5997 696.146 61.1152 696.146 56.3259C696.146 51.5037 697.415 48.0026 699.953 45.8227C702.523 43.6097 706.412 42.5033 711.62 42.5033C719.892 42.5033 724.852 45.3438 726.5 51.0248Z" fill="#545454"/>
<path d="M746.185 50.3807C743.087 50.3807 740.83 51.3881 739.412 53.4029C737.995 55.4176 737.287 58.5389 737.287 62.7666V69.3064H730.761V32.1486H737.287V50.5789C739.561 49.555 742.527 49.043 746.185 49.043C746.976 49.043 747.734 49.0595 748.459 49.0926C749.184 49.1256 749.876 49.2082 750.536 49.3403L754.095 43.1473H761.659L756.814 51.5697C757.605 51.9661 758.297 52.5441 758.89 53.3038C759.517 54.0634 760.027 54.9387 760.423 55.9296C760.851 56.9205 761.164 58.0104 761.362 59.1995C761.56 60.3555 761.659 61.5445 761.659 62.7666V69.3064H755.133V62.7666C755.133 58.5389 754.408 55.4176 752.958 53.4029C751.541 51.3881 749.283 50.3807 746.185 50.3807Z" fill="#545454"/>
<path d="M765.377 69.3064V32H771.903V69.3064H765.377Z" fill="#545454"/>
<path d="M776.143 69.3064V43.0482H782.669V69.3064H776.143ZM779.406 33.09C781.581 33.09 782.669 34.0643 782.669 36.013C782.669 37.9618 781.581 38.9361 779.406 38.9361C777.231 38.9361 776.143 37.9618 776.143 36.013C776.143 34.0643 777.231 33.09 779.406 33.09Z" fill="#545454"/>
<path d="M802.526 50.3807C799.428 50.3807 797.171 51.3881 795.754 53.4029C794.337 55.4176 793.628 58.5389 793.628 62.7666V69.3064H787.102V32.1486H793.628V50.5789C795.902 49.555 798.868 49.043 802.526 49.043C803.317 49.043 804.075 49.0595 804.801 49.0926C805.526 49.1256 806.218 49.2082 806.877 49.3403L810.436 43.1473H818L813.155 51.5697C813.946 51.9661 814.638 52.5441 815.232 53.3038C815.858 54.0634 816.369 54.9387 816.764 55.9296C817.193 56.9205 817.506 58.0104 817.703 59.1995C817.901 60.3555 818 61.5445 818 62.7666V69.3064H811.474V62.7666C811.474 58.5389 810.749 55.4176 809.299 53.4029C807.882 51.3881 805.624 50.3807 802.526 50.3807Z" fill="#545454"/>
<path d="M1454 34L1456.01 42.7775L1461.96 35.9178L1459.56 44.6023L1468.09 41.232L1461.85 47.834L1471 48.7251L1462.33 51.7322L1470.01 56.6805L1460.91 55.4038L1465.36 63.2758L1457.9 58.0077L1458.1 67L1454 58.9475L1449.9 67L1450.1 58.0077L1442.64 63.2758L1447.09 55.4038L1437.99 56.6805L1445.67 51.7322L1437 48.7251L1446.15 47.834L1439.91 41.232L1448.44 44.6023L1446.04 35.9178L1451.99 42.7775L1454 34Z" fill="#DAB971"/>
</g>
<defs>
<linearGradient id="paint0_linear_451_767" x1="739" y1="0" x2="739" y2="89.5" gradientUnits="userSpaceOnUse">
<stop stop-color="#D9D9D9"/>
<stop offset="1" stop-color="#D9D9D9" stop-opacity="0"/>
</linearGradient>
</defs>
</svg>
