<svg width="35" height="31" viewBox="0 0 35 31" fill="none" xmlns="http://www.w3.org/2000/svg">
<path d="M31.8324 3.21318C29.9645 1.35931 27.4975 0.236003 24.8763 0.0459447C22.2552 -0.144114 19.6527 0.611596 17.5383 2.17671C15.3095 0.51421 12.5353 -0.239648 9.7745 0.0669473C7.01365 0.373542 4.47117 1.71782 2.65907 3.82907C0.846962 5.94032 -0.10017 8.66171 0.00840025 11.4452C0.11697 14.2288 1.27318 16.8677 3.24419 18.8305L13.7546 29.4587C14.7399 30.4457 16.0756 31 17.4682 31C18.8609 31 20.1965 30.4457 21.1819 29.4587L31.6923 18.8305C32.7274 17.8163 33.5525 16.6068 34.1201 15.2718C34.6876 13.9367 34.9865 12.5023 34.9996 11.0511C35.0126 9.59978 34.7395 8.16023 34.1959 6.81515C33.6524 5.47006 32.8492 4.24595 31.8324 3.21318ZM29.3625 16.3184L18.8521 26.8588C18.6892 27.0234 18.4955 27.1541 18.282 27.2433C18.0686 27.3325 17.8396 27.3784 17.6084 27.3784C17.3771 27.3784 17.1482 27.3325 16.9347 27.2433C16.7212 27.1541 16.5275 27.0234 16.3646 26.8588L5.85427 16.3184C4.48049 14.9101 3.71122 13.0183 3.71122 11.0482C3.71122 9.07808 4.48049 7.1863 5.85427 5.77801C7.25417 4.39193 9.14221 3.61472 11.1095 3.61472C13.0767 3.61472 14.9647 4.39193 16.3646 5.77801C16.5275 5.94266 16.7212 6.07335 16.9347 6.16254C17.1482 6.25173 17.3771 6.29765 17.6084 6.29765C17.8396 6.29765 18.0686 6.25173 18.282 6.16254C18.4955 6.07335 18.6892 5.94266 18.8521 5.77801C20.2898 4.63067 22.0936 3.1065 24.603 3.21318C27.4409 3.33383 28.5065 4.37936 29.8057 5.68231C31.105 6.98526 31.7284 9.2085 31.8324 11.0482C31.9364 12.8879 30.5065 14.8765 29.3625 16.3184Z" fill="#DAB971"/>
</svg>
