<svg width="21" height="21" viewBox="0 0 21 21" fill="none" xmlns="http://www.w3.org/2000/svg">
<path d="M10.4999 0C5.81059 0 1.99561 3.81498 1.99561 8.50428C1.99561 10.4392 2.62971 12.2615 3.82939 13.7741C5.38274 15.7327 9.89996 20.3829 10.0915 20.5799L10.4998 21L10.9082 20.58C11.0999 20.3829 15.6184 15.7316 17.172 13.7724C18.3706 12.261 19.0042 10.4393 19.0042 8.50428C19.0042 3.81498 15.1892 0 10.4999 0ZM16.2794 13.0645C15.0287 14.6417 11.67 18.15 10.4999 19.3635C9.32988 18.1501 5.97236 14.6427 4.72198 13.0662C3.68368 11.757 3.13485 10.1795 3.13485 8.50428C3.13485 4.44316 6.43877 1.13924 10.4999 1.13924C14.5609 1.13924 17.8649 4.44316 17.8649 8.50428C17.8649 10.1796 17.3166 11.7566 16.2794 13.0645Z" fill="url(#paint0_linear_451_854)"/>
<path d="M10.4998 3.37598C7.72403 3.37598 5.46582 5.63418 5.46582 8.40995C5.46582 11.1857 7.72408 13.4439 10.4998 13.4439C13.2755 13.4439 15.5338 11.1857 15.5338 8.40995C15.5338 5.63424 13.2756 3.37598 10.4998 3.37598ZM10.4998 12.3047C8.3522 12.3047 6.60506 10.5575 6.60506 8.40995C6.60506 6.26236 8.35226 4.51522 10.4998 4.51522C12.6473 4.51522 14.3945 6.26242 14.3945 8.40995C14.3945 10.5575 12.6474 12.3047 10.4998 12.3047Z" fill="url(#paint1_linear_451_854)"/>
<defs>
<linearGradient id="paint0_linear_451_854" x1="21.2974" y1="-2.33333" x2="1.18977" y2="-0.946926" gradientUnits="userSpaceOnUse">
<stop stop-color="#FFD780"/>
<stop offset="0.508333" stop-color="#F9DB9A"/>
<stop offset="1" stop-color="#EFC05B"/>
</linearGradient>
<linearGradient id="paint1_linear_451_854" x1="16.8912" y1="2.25732" x2="5.01828" y2="3.26806" gradientUnits="userSpaceOnUse">
<stop stop-color="#FFD780"/>
<stop offset="0.508333" stop-color="#F9DB9A"/>
<stop offset="1" stop-color="#EFC05B"/>
</linearGradient>
</defs>
</svg>
