<svg width="25" height="26" viewBox="0 0 25 26" fill="none" xmlns="http://www.w3.org/2000/svg">
<g clip-path="url(#clip0_451_838)">
<path d="M23.8655 12.773C24.6577 12.2746 25.1026 11.3184 24.9076 10.3449C24.7143 9.37853 23.9325 8.64953 22.986 8.50568C23.2084 8.19753 23.3551 7.83601 23.4066 7.45002C23.4346 7.2406 23.2875 7.04807 23.078 7.02014C22.8681 6.99207 22.676 7.13933 22.6481 7.34875C22.5885 7.79572 22.3401 8.19436 21.9667 8.44255C21.623 8.67101 21.2113 8.75134 20.8077 8.66891C20.4024 8.5861 20.0534 8.34914 19.8253 8.00173C19.3542 7.28435 19.5508 6.31541 20.2635 5.84178C20.6074 5.61336 21.019 5.53294 21.4227 5.61546C21.828 5.69832 22.1769 5.93523 22.4052 6.28279C22.4227 6.30945 22.4397 6.33719 22.4558 6.36507C22.5608 6.54851 22.7946 6.61209 22.978 6.50706C23.1614 6.40208 23.225 6.16824 23.12 5.98484C23.0962 5.94334 23.0709 5.90213 23.0449 5.86248C22.7041 5.34354 22.1824 4.98953 21.576 4.86561C21.2405 4.79705 20.9014 4.80389 20.578 4.88162C20.8001 3.97045 20.4568 2.97392 19.6433 2.41191C19.2561 2.14443 18.8038 2.00297 18.3354 2.00297C17.6384 2.00297 16.9838 2.31821 16.5468 2.8539C16.0483 2.65214 15.5319 2.48627 15 2.35888V1.84111C15 1.34883 14.5994 0.948242 14.1072 0.948242H10.5457C10.0534 0.948242 9.65279 1.34878 9.65279 1.84111V2.44321C9.59668 2.45844 9.54048 2.47324 9.48467 2.48954C9.28179 2.54887 9.16549 2.76137 9.22481 2.96425C9.28028 3.15399 9.46983 3.26801 9.66001 3.23339C9.71372 3.67465 10.09 4.01796 10.5456 4.01796H11.7605L10.9724 5.38841C10.9024 5.37508 10.8305 5.36785 10.7567 5.36785C10.1202 5.36785 9.6024 5.88709 9.6024 6.52527C9.6024 7.16345 10.1202 7.68264 10.7567 7.68264C11.3933 7.68264 11.9111 7.16345 11.9111 6.52527C11.9111 6.23865 11.8064 5.97615 11.6336 5.77381L12.4212 4.40428L13.2267 5.80501C13.0693 6.00281 12.9749 6.2531 12.9749 6.52527C12.9749 7.16345 13.4928 7.68264 14.1293 7.68264C14.7658 7.68264 15.2836 7.16345 15.2836 6.52527C15.2836 5.88709 14.7657 5.3679 14.1292 5.3679C14.0417 5.3679 13.9566 5.37806 13.8746 5.39661L13.0818 4.018H14.1069C14.5917 4.018 14.9867 3.62938 14.9987 3.14745C15.3987 3.25106 15.787 3.37807 16.1629 3.52645C15.8083 4.49867 16.1367 5.62811 17.0238 6.2409C17.411 6.50838 17.8633 6.64983 18.3317 6.64983C18.5159 6.64983 18.6972 6.62737 18.8724 6.58508C18.7231 7.19314 18.8162 7.85954 19.1856 8.42194C19.5265 8.94094 20.0481 9.29489 20.6545 9.41881C20.6933 9.42672 20.7322 9.43366 20.7711 9.43957C20.4051 9.94679 20.2423 10.5998 20.3746 11.2609C20.5071 11.923 20.9159 12.4734 21.4645 12.8009C20.9315 13.1356 20.5394 13.6845 20.416 14.3415C20.2898 15.0139 20.4672 15.6743 20.8506 16.18C20.2187 16.2901 19.658 16.6581 19.3038 17.2118C18.9358 17.787 18.8534 18.466 19.0196 19.0793C18.8609 19.0449 18.6978 19.0261 18.5322 19.0261C18.0538 19.0261 17.5935 19.173 17.2014 19.451C16.646 19.8446 16.3159 20.4415 16.2401 21.0716C16.2135 21.0535 16.1866 21.0356 16.1592 21.0185C15.6356 20.6926 15.0171 20.5906 14.4175 20.731C13.7553 20.886 13.2261 21.3146 12.9201 21.87C12.5739 21.3499 12.0218 20.9702 11.3598 20.8652C11.2396 20.8462 11.1175 20.8365 10.9966 20.8365C10.4481 20.8365 9.94224 21.0267 9.54429 21.3497C9.41724 20.7387 9.0481 20.1803 8.47559 19.8339C8.1152 19.6158 7.70328 19.5005 7.28449 19.5005C7.05319 19.5005 6.82624 19.537 6.60968 19.6038C6.72301 18.9874 6.59025 18.3272 6.18752 17.7876C5.7885 17.2529 5.19768 16.9256 4.54377 16.8681C4.87903 16.3397 5.00266 15.6777 4.83098 15.0257C4.6592 14.3727 4.21975 13.8465 3.65071 13.5525C3.94563 13.3426 4.19368 13.0628 4.36619 12.7277C4.46291 12.5397 4.38899 12.3091 4.2011 12.2123C4.01316 12.1156 3.7825 12.1896 3.68572 12.3774C3.38855 12.9547 2.75848 13.2876 2.11737 13.2056C1.27103 13.0974 0.670108 12.3159 0.77792 11.4635C0.830312 11.0488 1.04042 10.6801 1.36947 10.4253C1.6953 10.1729 2.09915 10.0625 2.50692 10.1147C3.16629 10.199 3.69749 10.6963 3.82864 11.3521C3.87014 11.5593 4.07161 11.6934 4.27893 11.6522C4.48616 11.6107 4.62058 11.4091 4.57908 11.202C4.49866 10.8001 4.31726 10.4383 4.06321 10.1425C4.68342 9.99362 5.22527 9.5922 5.54436 9.02043C5.87717 8.42419 5.91896 7.74187 5.71667 7.13987C5.83156 7.1573 5.94846 7.16702 6.06691 7.16702C6.58879 7.16702 7.10104 6.9863 7.50924 6.65823C8.369 5.96761 8.60684 4.7805 8.14293 3.82504C8.23517 3.78002 8.32794 3.73627 8.42154 3.69437C8.61446 3.60809 8.70089 3.38173 8.61461 3.18881C8.52833 2.99594 8.30206 2.90956 8.10904 2.99579C7.96891 3.05849 7.83033 3.1246 7.69308 3.1935C7.26207 2.76298 6.68185 2.5206 6.06437 2.5206C5.5425 2.5206 5.0303 2.70126 4.62205 3.02929C3.84295 3.65512 3.57415 4.68866 3.87566 5.58792C3.76136 5.57039 3.64593 5.56043 3.52996 5.56043C2.69383 5.56043 1.92044 6.01517 1.51171 6.74734C1.02387 7.62126 1.16097 8.68019 1.77635 9.39972C1.462 9.47482 1.16425 9.61613 0.900771 9.82018C0.409952 10.2004 0.0966724 10.7498 0.0185965 11.3674C-0.107184 12.3622 0.416056 13.2922 1.25599 13.7266C0.495255 14.272 0.108342 15.2534 0.36088 16.2132C0.611075 17.1642 1.42855 17.8471 2.38831 17.9335C1.88753 18.7259 1.89584 19.7811 2.48826 20.575C2.92908 21.1656 3.60379 21.5044 4.33933 21.5044C4.56931 21.5044 4.79416 21.4705 5.0092 21.405C4.84211 22.3281 5.24441 23.3022 6.08996 23.8139C6.45026 24.0319 6.86208 24.1472 7.28082 24.1472C7.81525 24.1472 8.32814 23.9573 8.73487 23.628C8.92442 24.5479 9.66202 25.2996 10.6382 25.4544C10.7584 25.4735 10.8806 25.4832 11.0015 25.4832C11.8666 25.4832 12.6261 25.0106 13.0219 24.2885C13.2028 24.5596 13.4404 24.7916 13.725 24.9687C14.0952 25.199 14.5128 25.3175 14.9377 25.3175C15.1137 25.3175 15.2909 25.2972 15.4665 25.2561C15.6722 25.2079 15.8 25.002 15.7518 24.7962C15.7036 24.5904 15.4979 24.4625 15.292 24.5109C14.8919 24.6045 14.4788 24.5364 14.1293 24.3189C13.7763 24.0992 13.53 23.7541 13.4358 23.3471C13.2421 22.51 13.7607 21.6707 14.5919 21.476C14.9921 21.3824 15.4052 21.4506 15.7547 21.6681C16.1077 21.8878 16.3539 22.2329 16.4481 22.6399C16.5501 23.0807 16.4569 23.5437 16.1925 23.9102C16.0688 24.0815 16.1074 24.3207 16.2788 24.4444C16.4502 24.5681 16.6894 24.5294 16.813 24.358C17.0468 24.0341 17.1899 23.6595 17.2364 23.2714C17.6149 23.5291 18.0666 23.6725 18.5357 23.6725C19.0142 23.6725 19.4744 23.5256 19.8664 23.2476C20.6811 22.6704 21.0113 21.6556 20.7648 20.74C20.9224 20.7739 21.0838 20.7913 21.2467 20.7913C22.0381 20.7913 22.7658 20.3924 23.1931 19.7242C23.7324 18.8815 23.6588 17.8161 23.0877 17.0606C24.0209 16.8967 24.779 16.1656 24.9597 15.2025C25.1446 14.2172 24.6779 13.2573 23.8655 12.773ZM10.7567 6.91721C10.5421 6.91721 10.3677 6.74133 10.3677 6.52517C10.3677 6.30901 10.5422 6.13308 10.7567 6.13308C10.9712 6.13308 11.1457 6.30896 11.1457 6.52517C11.1457 6.74133 10.9711 6.91721 10.7567 6.91721ZM11.9436 3.25263H10.5455C10.4763 3.25263 10.4179 3.19423 10.4179 3.12509V1.84111C10.4179 1.77192 10.4763 1.71357 10.5455 1.71357H11.9436V3.25263ZM14.1292 6.13313C14.3438 6.13313 14.5182 6.30901 14.5182 6.52522C14.5182 6.74133 14.3437 6.91726 14.1292 6.91726C13.9147 6.91726 13.7402 6.74138 13.7402 6.52522C13.7402 6.30901 13.9147 6.13313 14.1292 6.13313ZM14.2346 3.12504C14.2346 3.19418 14.1762 3.25258 14.107 3.25258H12.7089V1.71352H14.107C14.1762 1.71352 14.2346 1.77187 14.2346 1.84106V3.12504ZM18.3318 5.88435C18.0195 5.88435 17.7176 5.78982 17.4588 5.61111C16.7546 5.12464 16.5754 4.15228 17.0593 3.44359C17.348 3.02079 17.825 2.7684 18.3353 2.7684C18.6476 2.7684 18.9495 2.86293 19.2082 3.04159C19.9124 3.52811 20.0916 4.50052 19.6077 5.20921C19.319 5.63196 18.842 5.88435 18.3318 5.88435ZM5.10139 3.62582C5.37819 3.40346 5.7112 3.28588 6.06442 3.28588C6.53761 3.28588 6.97834 3.49906 7.2735 3.87064C7.80685 4.54242 7.69762 5.52532 7.03 6.0616C6.75319 6.28406 6.42018 6.40164 6.06701 6.40164C5.59392 6.40164 5.15324 6.18841 4.85803 5.81678C4.32459 5.1451 4.43376 4.16219 5.10139 3.62582ZM2.18001 7.12039C2.45369 6.6303 2.97098 6.32581 3.53006 6.32581C3.79275 6.32581 4.05369 6.39475 4.28455 6.52498C5.02922 6.94568 5.29465 7.89777 4.87615 8.64748C4.60266 9.13752 4.08552 9.44201 3.52659 9.44201C3.26385 9.44201 3.00281 9.37301 2.77181 9.24255C2.02704 8.82194 1.76161 7.86999 2.18001 7.12039ZM2.59461 17.1776C1.89476 17.1776 1.28051 16.7009 1.10097 16.0185C0.882412 15.1877 1.37577 14.333 2.20077 14.1132C2.33084 14.0786 2.46424 14.061 2.5972 14.061C3.2971 14.061 3.91131 14.5378 4.09089 15.2204C4.30969 16.0511 3.81629 16.9057 2.99109 17.1254C2.86102 17.16 2.72762 17.1776 2.59461 17.1776ZM5.2655 20.4277C4.99568 20.6314 4.67541 20.7391 4.33938 20.7391C3.84773 20.7391 3.39661 20.5125 3.10169 20.1173C2.5887 19.4298 2.72713 18.4507 3.41033 17.9347C3.68015 17.731 4.00037 17.6233 4.3364 17.6233C4.8281 17.6233 5.27922 17.85 5.57429 18.2452C6.08732 18.9327 5.9488 19.9117 5.2655 20.4277ZM8.60738 22.6277C8.32491 23.1 7.82902 23.3819 7.28082 23.3819C7.00177 23.3819 6.72707 23.3048 6.4862 23.1591C5.75437 22.7162 5.5174 21.7564 5.95793 21.0196C6.2405 20.5475 6.73634 20.2656 7.28444 20.2656C7.56359 20.2656 7.83844 20.3427 8.07936 20.4885C8.81124 20.9314 9.04815 21.891 8.60738 22.6277ZM12.5266 23.4028C12.407 24.1648 11.7656 24.7178 11.0015 24.7178C10.9207 24.7178 10.8389 24.7113 10.7582 24.6985C9.91553 24.5648 9.33824 23.7654 9.47129 22.9165C9.59087 22.1546 10.2324 21.6017 10.9966 21.6017C11.0773 21.6017 11.1591 21.6082 11.2397 21.6209C12.0826 21.7548 12.6598 22.5541 12.5266 23.4028ZM21.125 11.1107C20.9565 10.2681 21.4999 9.44489 22.3364 9.27555C22.4377 9.25504 22.541 9.24464 22.6433 9.24464C23.3756 9.24464 24.0123 9.77052 24.1572 10.4951C24.3258 11.3376 23.7824 12.1607 22.9458 12.3301C22.8445 12.3506 22.7412 12.361 22.639 12.361C21.9067 12.3609 21.27 11.8351 21.125 11.1107ZM19.4239 22.6233C19.1619 22.809 18.8548 22.9072 18.5357 22.9072C18.0328 22.9072 17.5598 22.6605 17.2702 22.2473C16.778 21.5445 16.9455 20.5701 17.6439 20.0752C17.906 19.8893 18.2132 19.7912 18.5322 19.7912C19.0351 19.7912 19.5081 20.0378 19.7976 20.451C20.2899 21.1539 20.1224 22.1283 19.4239 22.6233ZM22.5485 19.3118C22.2625 19.7591 21.7758 20.026 21.2467 20.026C20.9511 20.026 20.6626 19.9405 20.4125 19.7786C19.6941 19.3137 19.486 18.3471 19.9484 17.6242C20.2345 17.1769 20.7212 16.9099 21.2503 16.9099C21.5459 16.9099 21.8344 16.9955 22.0845 17.1574C22.8029 17.6224 23.0111 18.5888 22.5485 19.3118ZM24.2076 15.0613C24.0696 15.7965 23.4314 16.3301 22.69 16.3301C22.5939 16.3301 22.4968 16.3209 22.4014 16.3028C21.5629 16.1436 21.0097 15.3271 21.1682 14.4827C21.3062 13.7475 21.9444 13.2139 22.6856 13.2139C22.7817 13.2139 22.8788 13.223 22.9743 13.2412C23.8128 13.4003 24.3661 14.2169 24.2076 15.0613Z" fill="url(#paint0_linear_451_838)"/>
<path d="M23.6567 10.5947C23.6151 10.3875 23.4136 10.253 23.2063 10.2947C22.9991 10.3361 22.8648 10.5378 22.9063 10.745C22.9372 10.8994 22.8413 11.0495 22.6925 11.0796C22.4854 11.1215 22.3515 11.3234 22.3934 11.5306C22.4301 11.7121 22.5898 11.8373 22.7681 11.8373C22.7932 11.8373 22.8188 11.8349 22.8444 11.8297C23.4059 11.7161 23.7702 11.162 23.6567 10.5947Z" fill="url(#paint1_linear_451_838)"/>
<path d="M22.1879 18.251C22.1465 18.0438 21.9449 17.9093 21.7376 17.9509C21.5304 17.9924 21.3961 18.194 21.4376 18.4013C21.4685 18.5556 21.3726 18.7057 21.2238 18.7359C21.0167 18.7778 20.8827 18.9797 20.9247 19.1868C20.9614 19.3684 21.121 19.4936 21.2993 19.4936C21.3245 19.4936 21.3501 19.4911 21.3757 19.486C21.9371 19.3723 22.3015 18.8183 22.1879 18.251Z" fill="url(#paint2_linear_451_838)"/>
<path d="M16.0414 22.9365C16 22.7293 15.7984 22.5949 15.5911 22.6364C15.384 22.6779 15.2496 22.8796 15.2911 23.0868C15.322 23.2412 15.2261 23.3913 15.0773 23.4214C14.8702 23.4633 14.7363 23.6652 14.7782 23.8723C14.815 24.0539 14.9745 24.1791 15.1528 24.1791C15.178 24.1791 15.2036 24.1766 15.2292 24.1714C15.7906 24.0578 16.155 23.5038 16.0414 22.9365Z" fill="url(#paint3_linear_451_838)"/>
</g>
<defs>
<linearGradient id="paint0_linear_451_838" x1="28.3708" y1="-1.77786" x2="-1.10318" y2="0.778809" gradientUnits="userSpaceOnUse">
<stop stop-color="#FFD780"/>
<stop offset="0.508333" stop-color="#F9DB9A"/>
<stop offset="1" stop-color="#EFC05B"/>
</linearGradient>
<linearGradient id="paint1_linear_451_838" x1="23.8516" y1="10.1149" x2="22.325" y2="10.2231" gradientUnits="userSpaceOnUse">
<stop stop-color="#FFD780"/>
<stop offset="0.508333" stop-color="#F9DB9A"/>
<stop offset="1" stop-color="#EFC05B"/>
</linearGradient>
<linearGradient id="paint2_linear_451_838" x1="22.3828" y1="17.7711" x2="20.8562" y2="17.8794" gradientUnits="userSpaceOnUse">
<stop stop-color="#FFD780"/>
<stop offset="0.508333" stop-color="#F9DB9A"/>
<stop offset="1" stop-color="#EFC05B"/>
</linearGradient>
<linearGradient id="paint3_linear_451_838" x1="16.2363" y1="22.4567" x2="14.7097" y2="22.5649" gradientUnits="userSpaceOnUse">
<stop stop-color="#FFD780"/>
<stop offset="0.508333" stop-color="#F9DB9A"/>
<stop offset="1" stop-color="#EFC05B"/>
</linearGradient>
<clipPath id="clip0_451_838">
<rect width="25" height="25" fill="white" transform="translate(0 0.71582)"/>
</clipPath>
</defs>
</svg>
