<svg width="22" height="22" viewBox="0 0 22 22" fill="none" xmlns="http://www.w3.org/2000/svg">
<path d="M11 0L12.6585 4.27137L16.112 1.25998L15.5954 5.81282L20.0528 4.75129L17.4797 8.54259L21.9198 9.6741L17.8795 11.8353L21.2852 14.9007L16.7033 14.9367L18.2943 19.2336L14.2205 17.1362L13.6325 21.6804L11 17.93L8.36753 21.6804L7.77947 17.1362L3.70565 19.2336L5.29672 14.9367L0.714821 14.9007L4.12053 11.8353L0.0802021 9.6741L4.52034 8.54259L1.94718 4.75129L6.40456 5.81282L5.88805 1.25998L9.34154 4.27137L11 0Z" fill="url(#paint0_linear_451_835)"/>
<defs>
<linearGradient id="paint0_linear_451_835" x1="24.9663" y1="-2.44444" x2="-0.977941" y2="-0.235821" gradientUnits="userSpaceOnUse">
<stop stop-color="#FFD780"/>
<stop offset="0.508333" stop-color="#F9DB9A"/>
<stop offset="1" stop-color="#EFC05B"/>
</linearGradient>
</defs>
</svg>
