<svg width="25" height="26" viewBox="0 0 25 26" fill="none" xmlns="http://www.w3.org/2000/svg">
<path d="M12.8927 0.0100074C12.816 0.00576183 12.74 0 12.6627 0C12.6427 0 12.6227 0.00242603 12.6027 0.00272929C12.5685 0.00242603 12.5345 0 12.5 0C5.6075 0 0 5.61232 0 12.5104C0 19.4092 5.6075 25.0215 12.5 25.0215C19.3925 25.0215 25 19.4092 25 12.5104C25 5.74424 19.6037 0.218646 12.8927 0.0100074ZM12.696 23.188C12.6848 23.1883 12.6742 23.1898 12.663 23.1898C12.6518 23.1898 12.6409 23.1883 12.63 23.188H12.696ZM11.5907 22.9527C10.3281 22.392 9.21828 20.8696 8.462 18.7957C9.44795 18.5543 10.5008 18.3975 11.5907 18.3353V22.9527ZM11.5907 16.5143C10.3245 16.5813 9.09617 16.766 7.94328 17.0559C7.67543 15.9314 7.50303 14.7042 7.44667 13.4205H11.5907V16.5143ZM7.44607 11.601C7.50758 10.1818 7.71179 8.83227 8.02903 7.61319C9.15495 7.88915 10.3536 8.06261 11.5907 8.1269V11.601H7.44607ZM11.5907 6.30435C10.5551 6.24339 9.54521 6.09601 8.5929 5.87039C9.34341 3.97263 10.3987 2.58554 11.5907 2.05667V6.30435ZM13.4087 8.14297C14.7579 8.09385 16.069 7.9125 17.2958 7.61107C17.6133 8.83076 17.8178 10.1808 17.8793 11.601H13.4087V8.14297ZM13.4087 6.32133V1.93476C14.7352 2.34021 15.9169 3.80493 16.7352 5.87858C15.6878 6.12573 14.5661 6.27584 13.4087 6.32133ZM17.2534 2.94005C18.2032 3.41464 19.0722 4.02661 19.8358 4.74987C19.4113 4.97155 18.9583 5.17169 18.4823 5.3497C18.1342 4.45147 17.7209 3.64208 17.2534 2.94005ZM6.84462 5.34576C6.28803 5.13864 5.76627 4.90058 5.2836 4.63645C6.14653 3.84374 7.13944 3.19235 8.22628 2.71564C7.69604 3.46619 7.23034 4.35139 6.84462 5.34576ZM6.28197 7.08098C5.91625 8.45897 5.68901 9.98342 5.62689 11.6007H1.85947C2.03642 9.51035 2.81572 7.59014 4.02436 6.01444C4.71064 6.42595 5.46903 6.78227 6.28197 7.08098ZM5.6272 13.4205C5.68507 14.9052 5.88262 16.3099 6.19834 17.596C5.33814 17.9178 4.54369 18.3041 3.83257 18.7484C2.73361 17.223 2.02703 15.398 1.85947 13.4208L5.6272 13.4205ZM6.72252 19.3364C7.13368 20.4724 7.64635 21.4764 8.23961 22.3122C7.03854 21.7873 5.95231 21.0479 5.02878 20.1421C5.54509 19.8386 6.11471 19.5702 6.72252 19.3364ZM13.4087 23.0746V18.3184C14.6104 18.3669 15.776 18.5312 16.8625 18.7981C16.042 21.0473 14.8049 22.6473 13.4087 23.0746ZM13.4087 16.4958V13.4205H17.8787C17.8224 14.7008 17.6509 15.9248 17.3843 17.0465C16.1371 16.7342 14.7988 16.5452 13.4087 16.4958ZM19.6985 13.4205H23.1405C22.9784 15.3371 22.3097 17.1108 21.2677 18.6074C20.6139 18.2171 19.8973 17.8762 19.1289 17.5884C19.4437 16.3038 19.6403 14.9016 19.6985 13.4205ZM19.6988 11.601C19.6364 9.98342 19.4095 8.45897 19.0438 7.08068C19.7694 6.81412 20.4506 6.50085 21.0762 6.14483C22.2282 7.69537 22.9684 9.56827 23.1405 11.601H19.6988ZM17.2412 22.0878C17.7688 21.299 18.2278 20.3735 18.6026 19.3382C19.1307 19.5411 19.6288 19.7712 20.0885 20.0269C19.2631 20.8611 18.3017 21.5592 17.2412 22.0878Z" fill="url(#paint0_linear_451_831)"/>
<defs>
<linearGradient id="paint0_linear_451_831" x1="28.3708" y1="-2.78016" x2="-1.11166" y2="-0.27249" gradientUnits="userSpaceOnUse">
<stop stop-color="#FFD780"/>
<stop offset="0.508333" stop-color="#F9DB9A"/>
<stop offset="1" stop-color="#EFC05B"/>
</linearGradient>
</defs>
</svg>
