<svg width="288" height="80" viewBox="0 0 288 80" fill="none" xmlns="http://www.w3.org/2000/svg">
<path d="M22 15L24.5798 26.5332L32.2239 17.52L29.1485 28.9311L40.1056 24.5026L32.0795 33.1774L43.8396 34.3482L32.7014 38.2994L42.5704 44.8013L30.8718 43.1237L36.5887 53.4672L27.0097 46.5452L27.2649 58.3607L22 47.78L16.7351 58.3607L16.9903 46.5452L7.4113 53.4672L13.1282 43.1237L1.42964 44.8013L11.2986 38.2994L0.160404 34.3482L11.9205 33.1774L3.89436 24.5026L14.8515 28.9311L11.7761 17.52L19.4202 26.5332L22 15Z" fill="url(#paint0_linear_451_861)"/>
<path d="M54.4688 61V12.808H62.9167V43.144H73.5408L85.3168 12.808H95.1088L82.8848 43.848C86.8101 44.7013 89.7328 46.1947 91.6528 48.328C93.5728 50.4187 94.5328 53.32 94.5328 57.032V61H86.0848V57.032C86.0848 52.8507 85.1461 49.8 83.2688 47.88C81.3914 45.9173 78.4688 44.936 74.5008 44.936H62.9167V61H54.4688ZM120.001 27.976C116.118 27.976 113.217 29.2773 111.297 31.88C109.377 34.44 108.417 38.4933 108.417 44.04V46.088L129.473 40.456C129.985 40.328 130.39 40.072 130.689 39.688C130.987 39.2613 131.137 38.792 131.137 38.28V37.896C130.582 34.824 129.409 32.4133 127.617 30.664C125.825 28.872 123.286 27.976 120.001 27.976ZM139.265 37.384C139.307 37.512 139.329 37.704 139.329 37.96C139.329 38.5573 139.158 39.048 138.817 39.432C138.518 39.7733 138.134 40.008 137.665 40.136L108.609 47.944C109.078 52.1253 110.23 55.1973 112.065 57.16C113.899 59.1227 116.545 60.104 120.001 60.104C123.073 60.104 125.526 59.3147 127.361 57.736C129.238 56.1573 130.475 53.6827 131.073 50.312C131.158 49.7573 131.414 49.3307 131.841 49.032C132.267 48.6907 132.737 48.52 133.249 48.52H136.961C137.558 48.52 138.07 48.7333 138.497 49.16C138.923 49.544 139.137 50.0773 139.137 50.76C139.137 51.0587 139.115 51.272 139.073 51.4C137.835 55.112 135.638 57.7787 132.481 59.4C129.366 61.0213 125.206 61.8533 120.001 61.896H119.553C113.025 61.896 108.118 60.5093 104.833 57.736C101.59 54.92 99.9688 50.4187 99.9688 44.232C99.9688 38.0027 101.611 33.48 104.897 30.664C108.225 27.8053 113.259 26.376 120.001 26.376C130.71 26.376 137.131 30.0453 139.265 37.384ZM164.749 36.552C160.739 36.552 157.816 37.8533 155.981 40.456C154.147 43.0587 153.229 47.0907 153.229 52.552V61H144.781V13H153.229V36.808C156.173 35.4853 160.013 34.824 164.749 34.824C165.773 34.824 166.755 34.8453 167.693 34.888C168.632 34.9307 169.528 35.0373 170.381 35.208L174.989 27.208H184.781L178.509 38.088C179.533 38.6 180.429 39.3467 181.197 40.328C182.008 41.3093 182.669 42.44 183.181 43.72C183.736 45 184.141 46.408 184.397 47.944C184.653 49.4373 184.781 50.9733 184.781 52.552V61H176.333V52.552C176.333 47.0907 175.395 43.0587 173.517 40.456C171.683 37.8533 168.76 36.552 164.749 36.552ZM190.094 61V12.808H198.542V61H190.094ZM204.031 61V27.08H212.479V61H204.031ZM208.255 14.216C211.071 14.216 212.479 15.4747 212.479 17.992C212.479 20.5093 211.071 21.768 208.255 21.768C205.439 21.768 204.031 20.5093 204.031 17.992C204.031 15.4747 205.439 14.216 208.255 14.216ZM238.187 36.552C234.176 36.552 231.253 37.8533 229.419 40.456C227.584 43.0587 226.667 47.0907 226.667 52.552V61H218.219V13H226.667V36.808C229.611 35.4853 233.451 34.824 238.187 34.824C239.211 34.824 240.192 34.8453 241.131 34.888C242.069 34.9307 242.965 35.0373 243.819 35.208L248.427 27.208H258.219L251.947 38.088C252.971 38.6 253.867 39.3467 254.635 40.328C255.445 41.3093 256.107 42.44 256.619 43.72C257.173 45 257.579 46.408 257.835 47.944C258.091 49.4373 258.219 50.9733 258.219 52.552V61H249.771V52.552C249.771 47.0907 248.832 43.0587 246.955 40.456C245.12 37.8533 242.197 36.552 238.187 36.552Z" fill="white"/>
<defs>
<linearGradient id="paint0_linear_451_861" x1="49.9326" y1="10.1111" x2="-1.95588" y2="14.5284" gradientUnits="userSpaceOnUse">
<stop stop-color="#FFD780"/>
<stop offset="0.508333" stop-color="#F9DB9A"/>
<stop offset="1" stop-color="#EFC05B"/>
</linearGradient>
</defs>
</svg>
